<svg width="113.98750610351563px" height="57.60000076293945px" xmlns="http://www.w3.org/2000/svg" viewBox="193.0062469482422 46.19999961853027 113.98750610351563 57.60000076293945" style="background: rgba(0, 0, 0, 0);" preserveAspectRatio="xMidYMid"><defs><filter id="editing-metal-beveled"><feGaussianBlur stdDeviation="4" in="SourceAlpha" result="blur"></feGaussianBlur><feSpecularLighting surfaceScale="5" specularConstant="0.8" specularExponent="7.5" lighting-color="#000000" in="blur" result="specular"><fePointLight x="-250" y="-50" z="300"></fePointLight></feSpecularLighting><feComposite operator="in" in="specular" in2="SourceAlpha" result="comp"></feComposite><feComposite in="SourceGraphic" in2="comp" operator="arithmetic" k1="0" k2="1" k3="1" k4="0"></feComposite></filter></defs><g filter="url(#editing-metal-beveled)"><g transform="translate(215.41498363018036, 83.62499618530273)"><path d="M5.68 0.42L5.68 0.42L5.68 0.42Q2.71 0.42 1.08-0.35L1.08-0.35L1.08-0.35Q1.08-2.31 1.65-4.18L1.65-4.18L1.65-4.18Q1.69-4.18 1.78-4.19L1.78-4.19L1.78-4.19Q1.87-4.20 1.94-4.20L1.94-4.20L1.94-4.20Q2.33-4.20 2.62-4.07L2.62-4.07L2.97-1.14L2.97-1.14Q4.36-0.81 5.35-0.81L5.35-0.81L5.35-0.81Q6.12-0.81 6.93-0.99L6.93-0.99L6.93-0.99Q7.74-1.17 8.35-1.72L8.35-1.72L8.35-1.72Q8.95-2.27 8.95-3.21L8.95-3.21L8.95-3.21Q8.95-4.07 8.70-4.60L8.70-4.60L8.70-4.60Q8.45-5.13 7.53-5.75L7.53-5.75L7.53-5.75Q6.62-6.38 4.69-7.22L4.69-7.22L4.69-7.22Q2.71-8.10 1.90-9.10L1.90-9.10L1.90-9.10Q1.10-10.10 1.14-11.79L1.14-11.79L1.14-11.79Q1.17-13.73 2.77-14.74L2.77-14.74L2.77-14.74Q4.38-15.75 6.80-15.75L6.80-15.75L6.80-15.75Q8.84-15.75 10.54-15.09L10.54-15.09L10.54-15.09Q10.60-13.42 9.86-11.37L9.86-11.37L9.86-11.37Q9.77-11.35 9.57-11.35L9.57-11.35L9.57-11.35Q9.20-11.35 8.89-11.48L8.89-11.48L8.65-14.41L8.65-14.41Q7.66-14.70 6.67-14.70L6.67-14.70L6.67-14.70Q5.21-14.70 4.23-14.07L4.23-14.07L4.23-14.07Q3.26-13.44 3.23-12.17L3.23-12.17L3.23-12.17Q3.21-11.15 3.82-10.52L3.82-10.52L3.82-10.52Q4.42-9.88 6.38-9.00L6.38-9.00L6.38-9.00Q7.81-8.36 8.60-7.93L8.60-7.93L8.60-7.93Q9.39-7.50 10.04-6.92L10.04-6.92L10.04-6.92Q10.69-6.34 10.98-5.59L10.98-5.59L10.98-5.59Q11.26-4.84 11.26-3.83L11.26-3.83L11.26-3.83Q11.22-1.78 9.57-0.68L9.57-0.68L9.57-0.68Q7.92 0.42 5.68 0.42ZM16.06-16.39L16.06-16.39L16.06-9.79L16.17-9.79L16.17-9.79Q18.02-11.44 19.78-11.44L19.78-11.44L19.78-11.44Q21.52-11.44 22.37-10.53L22.37-10.53L22.37-10.53Q23.23-9.61 23.23-8.01L23.23-8.01L23.23-1.10L24.82-0.66L24.82-0.66Q24.88-0.24 24.71 0.11L24.71 0.11L24.71 0.11Q22.73 0 22.13 0L22.13 0L22.13 0Q21.47 0 19.45 0.11L19.45 0.11L19.45 0.11Q19.38-0.31 19.49-0.66L19.49-0.66L19.49-0.66Q20.59-0.88 21.03-1.10L21.03-1.10L21.03-7.68L21.03-7.68Q21.03-8.93 20.47-9.43L20.47-9.43L20.47-9.43Q19.91-9.92 18.90-9.90L18.90-9.90L18.90-9.90Q18.19-9.90 17.43-9.55L17.43-9.55L17.43-9.55Q16.68-9.20 16.17-8.62L16.17-8.62L16.17-1.10L17.64-0.66L17.64-0.66Q17.71-0.24 17.53 0.11L17.53 0.11L17.53 0.11Q15.55 0 15.07 0L15.07 0L15.07 0Q14.43 0 12.39 0.11L12.39 0.11L12.39 0.11Q12.32-0.31 12.43-0.66L12.43-0.66L12.43-0.66Q13.66-0.95 13.97-1.10L13.97-1.10L13.97-15.09L12.14-15.27L12.14-15.27Q12.08-15.71 12.25-16.04L12.25-16.04L12.25-16.04Q13.84-16.28 15.22-16.63L15.22-16.63L15.22-16.63Q15.60-16.61 16.06-16.39ZM25.94-5.50L25.94-5.50L25.94-5.50Q25.94-8.25 27.54-9.86L27.54-9.86L27.54-9.86Q29.15-11.46 31.48-11.44L31.48-11.44L31.48-11.44Q34.03-11.44 35.53-9.75L35.53-9.75L35.53-9.75Q37.03-8.05 37.03-5.50L37.03-5.50L37.03-5.50Q37.03-2.71 35.44-1.12L35.44-1.12L35.44-1.12Q33.86 0.46 31.48 0.44L31.48 0.44L31.48 0.44Q28.86 0.44 27.40-1.25L27.40-1.25L27.40-1.25Q25.94-2.95 25.94-5.50ZM34.65-5.19L34.65-5.19L34.65-5.19Q34.69-7.28 33.90-8.89L33.90-8.89L33.90-8.89Q33.11-10.49 31.44-10.49L31.44-10.49L31.44-10.49Q29.81-10.49 29.05-9.07L29.05-9.07L29.05-9.07Q28.29-7.66 28.31-5.35L28.31-5.35L28.31-5.35Q28.31-4.33 28.50-3.45L28.50-3.45L28.50-3.45Q28.69-2.57 29.08-1.91L29.08-1.91L29.08-1.91Q29.48-1.25 30.08-0.88L30.08-0.88L30.08-0.88Q30.69-0.51 31.53-0.51L31.53-0.51L31.53-0.51Q32.89-0.48 33.77-1.61L33.77-1.61L33.77-1.61Q34.65-2.73 34.65-5.19ZM49.57 0.62L49.57 0.62L46.79-7.33L44.07 0.31L44.07 0.31Q43.58 0.55 43.03 0.59L43.03 0.59L38.98-9.90L37.29-10.34L37.29-10.34Q37.22-10.76 37.40-11.11L37.40-11.11L37.40-11.11Q39.38-11 40.08-11L40.08-11L40.08-11Q40.81-11 42.86-11.11L42.86-11.11L42.86-11.11Q42.92-10.69 42.81-10.34L42.81-10.34L42.81-10.34Q41.60-10.08 41.29-9.90L41.29-9.90L42.92-5.30L42.92-5.30Q43.47-3.74 43.85-2.18L43.85-2.18L43.91-2.18L43.91-2.18Q44.40-4.07 44.81-5.21L44.81-5.21L46.22-8.98L45.91-9.90L44.22-10.34L44.22-10.34Q44.15-10.76 44.33-11.11L44.33-11.11L44.33-11.11Q46.02-11 46.95-11L46.95-11L46.95-11Q47.89-11 49.48-11.11L49.48-11.11L49.48-11.11Q49.54-10.69 49.43-10.34L49.43-10.34L49.43-10.34Q48.22-10.10 47.92-9.90L47.92-9.90L49.39-5.10L49.39-5.10Q50.14-2.71 50.31-1.96L50.31-1.96L50.38-1.96L50.38-1.96Q50.62-3.06 51.24-4.93L51.24-4.93L52.80-9.90L51.11-10.34L51.11-10.34Q51.04-10.76 51.22-11.11L51.22-11.11L51.22-11.11Q52.65-11 53.42-11L53.42-11L53.42-11Q54.14-11 55.75-11.11L55.75-11.11L55.75-11.11Q55.81-10.69 55.70-10.34L55.70-10.34L55.70-10.34Q54.54-10.14 54.14-9.90L54.14-9.90L50.62 0.31L50.62 0.31Q50.12 0.57 49.57 0.62ZM55.64-1.10L55.64-1.10L55.64-1.10Q55.64-1.52 56.12-1.92L56.12-1.92L56.12-1.92Q56.61-2.33 57.11-2.33L57.11-2.33L57.11-2.33Q57.66-2.33 58.04-1.86L58.04-1.86L58.04-1.86Q58.41-1.39 58.41-0.90L58.41-0.90L58.41-0.90Q58.41-0.46 57.94-0.07L57.94-0.07L57.94-0.07Q57.46 0.33 56.91 0.33L56.91 0.33L56.91 0.33Q56.41 0.33 56.02-0.14L56.02-0.14L56.02-0.14Q55.64-0.62 55.64-1.10ZM60.48-1.10L60.48-1.10L60.48-1.10Q60.48-1.52 60.96-1.92L60.96-1.92L60.96-1.92Q61.45-2.33 61.95-2.33L61.95-2.33L61.95-2.33Q62.50-2.33 62.88-1.86L62.88-1.86L62.88-1.86Q63.25-1.39 63.25-0.90L63.25-0.90L63.25-0.90Q63.25-0.46 62.78-0.07L62.78-0.07L62.78-0.07Q62.30 0.33 61.75 0.33L61.75 0.33L61.75 0.33Q61.25 0.33 60.86-0.14L60.86-0.14L60.86-0.14Q60.48-0.62 60.48-1.10ZM65.32-1.10L65.32-1.10L65.32-1.10Q65.32-1.52 65.80-1.92L65.80-1.92L65.80-1.92Q66.29-2.33 66.79-2.33L66.79-2.33L66.79-2.33Q67.34-2.33 67.72-1.86L67.72-1.86L67.72-1.86Q68.09-1.39 68.09-0.90L68.09-0.90L68.09-0.90Q68.09-0.46 67.62-0.07L67.62-0.07L67.62-0.07Q67.14 0.33 66.59 0.33L66.59 0.33L66.59 0.33Q66.09 0.33 65.70-0.14L65.70-0.14L65.70-0.14Q65.32-0.62 65.32-1.10Z" fill="#1b4371"></path></g></g><style>text {
  font-size: 64px;
  font-family: Arial Black;
  dominant-baseline: central;
  text-anchor: middle;
}</style></svg>